<?xml version="1.0" encoding="UTF-8"?>
<svg class="svg-fig" viewBox="0 0 760 250" xmlns="http://www.w3.org/2000/svg" role="img" aria-label="Agent querying through a semantic layer" width="760" height="250"><style>
text,.svg-fig{font-family:'JetBrains Mono',ui-monospace,SFMono-Regular,Menlo,monospace}
.s-box{fill:#fff;stroke:#1c1f26;stroke-width:1.5}
.s-blue{fill:#e8eef2;stroke:#1f4e6b;stroke-width:1.5}
.s-ox{fill:#f6e9e4;stroke:#8a3324;stroke-width:1.5}
.s-gold{fill:#f1f0e2;stroke:#9a7b25;stroke-width:1.5}
.s-green{fill:#e2efe5;stroke:#3f6f4a;stroke-width:1.5}
.s-lbl{font-size:12px;fill:#1c1f26;font-weight:500}
.s-sub{font-size:10px;fill:#6b7180}
.s-edge{stroke:#3c424e;stroke-width:1.5;fill:none}
.s-edge-d{stroke:#3c424e;stroke-width:1.4;fill:none;stroke-dasharray:5 4}
.s-cap{font-size:10.5px;fill:#1f4e6b;letter-spacing:.08em}
</style><rect x="0" y="0" width="760" height="250" fill="#fdfcf8"/>
  <defs><marker id="ar10" markerWidth="9" markerHeight="9" refX="7" refY="4.5" orient="auto"><path d="M0,0 L9,4.5 L0,9 z" fill="#3c424e"/></marker></defs>
  <rect x="14" y="100" width="120" height="50" rx="7" class="s-blue"/>
  <text x="74" y="122" text-anchor="middle" class="s-lbl">LLM agent</text>
  <text x="74" y="138" text-anchor="middle" class="s-sub">picks metric+dims</text>

  <rect x="186" y="100" width="150" height="50" rx="7" class="s-gold"/>
  <text x="261" y="118" text-anchor="middle" class="s-lbl">constrained tool</text>
  <text x="261" y="134" text-anchor="middle" class="s-sub">Pydantic query schema</text>

  <rect x="388" y="100" width="150" height="50" rx="7" class="s-green"/>
  <text x="463" y="118" text-anchor="middle" class="s-lbl">semantic layer</text>
  <text x="463" y="134" text-anchor="middle" class="s-sub">metric defs → SQL</text>

  <rect x="590" y="100" width="156" height="50" rx="7" class="s-box"/>
  <text x="668" y="118" text-anchor="middle" class="s-lbl">warehouse</text>
  <text x="668" y="134" text-anchor="middle" class="s-sub">GOLD tables</text>

  <path class="s-edge" marker-end="url(#ar10)" d="M134,125 L184,125"/>
  <path class="s-edge" marker-end="url(#ar10)" d="M336,125 L386,125"/>
  <path class="s-edge" marker-end="url(#ar10)" d="M538,125 L588,125"/>
  <text x="160" y="92" text-anchor="middle" class="s-cap">no SQL</text>
  <text x="463" y="184" text-anchor="middle" class="s-sub">deterministic · governed · correct-by-construction</text>
</svg>